# xmcd CD database file
#
# Track frame offsets:
#	150
#	14990
#	30671
#	64706
#	119949
#	146558
#	158304
#
# Disc length: 2277 seconds
#
# Revision: 1
# Processed by: cddbd v1.5.2PL0 Copyright (c) Steve Scherf et al.
# Submitted via: CDex 1.70beta2
#
DISCID=6008e307
DTITLE=Express To Oblivion - Transatlantic Railroad
DYEAR=1967
DGENRE=Blues Rock
TTITLE0=Camp Towanga
TTITLE1=Fred Chicken Blues
TTITLE2=Tehama Steet Song
TTITLE3=Elephant
TTITLE4=Old English 800
TTITLE5=Irahs
TTITLE6=Good Times
EXTD=Typed By [aGu] YEAR: 1967
EXTT0=
EXTT1=
EXTT2=
EXTT3=
EXTT4=
EXTT5=
EXTT6=
PLAYORDER=
